<svg id="Layer_1" data-name="Layer 1" xmlns="http://www.w3.org/2000/svg" xmlns:xlink="http://www.w3.org/1999/xlink" viewBox="0 0 699.53 790.27"><defs><style>.cls-1{fill:url(#linear-gradient);}</style><linearGradient id="linear-gradient" x1="207.79" y1="960.06" x2="536.65" y2="1361.89" gradientTransform="translate(0 -675.89)" gradientUnits="userSpaceOnUse"><stop offset="0" stop-color="#02b8ff"/><stop offset="0" stop-color="#02b3ff"/><stop offset="1" stop-color="#096dd9"/></linearGradient></defs><title>Logo SmartPush</title><path class="cls-1" d="M594.61,365.65l-13,262.9-97-77.26L594.61,365.65Zm-253,71.56,97,77.26L594.61,365.13Zm97,77.26h0m23.33,18.15L438.53,514l-28.52,83,75.19-45.63h0ZM718,210.09c-150.9-119.79-371.27-94.9-491.58,56.52-51.33,64.3-75.7,141-75.7,217.27V924.64L283,758.18V483.88a217.18,217.18,0,0,1,47.19-135.34c75.19-93.86,212.09-109.93,305.94-34.75S746,525.88,670.83,619.73a218,218,0,0,1-262.9,61.71,221.51,221.51,0,0,1-43-27L283,757.67A368.52,368.52,0,0,0,341,795c145.19,74.67,328.24,39.41,433.5-93.86C894.32,550.77,869.43,330.39,718,210.09Z" transform="translate(-150.74 -134.36)"/></svg>